<?xml version="1.0" encoding="UTF-8"?>
<svg version="1.1" xmlns="http://www.w3.org/2000/svg" width="1024" height="1024">

<path d="M0 0 C0.74944885 0.00087616 1.49889771 0.00175232 2.27105713 0.00265503 C14.40114078 0.0493328 25.81604674 0.8785427 37.5 4.375 C38.32064941 4.61637695 39.14129883 4.85775391 39.98681641 5.10644531 C62.33087495 11.87221433 81.64871329 23.24262484 98.5 39.375 C99.23476563 40.04660156 99.96953125 40.71820313 100.7265625 41.41015625 C124.60687017 63.98253188 139.68952727 98.58737279 140.73828125 131.28125 C141.12613472 154.49980847 136.26375309 172.45749101 124.23046875 192.48828125 C121.77304218 196.82134082 120.51513744 200.83869812 120.73828125 205.86328125 C123.11387365 213.6966449 133.22376075 218.69676684 139.57421875 223.21484375 C146.8845024 228.61215598 153.81265816 234.52471738 160.125 241.0625 C166.4413377 247.49388939 173.109752 252.62394308 181.5625 255.875 C187.90420844 258.33803773 192.49480918 261.81971397 197.5 266.375 C198.33402344 267.11621094 199.16804688 267.85742188 200.02734375 268.62109375 C213.63565971 281.39068454 224.03904196 299.69097451 224.703125 318.57421875 C225.00954849 336.21406276 220.83675961 353.34278706 209.5 367.375 C208.05244915 368.57604448 206.59715019 369.76777639 205.13671875 370.953125 C199.75234306 375.6291747 197.34775091 380.91398245 194.5625 387.375 C177.52805083 424.7688261 177.52805083 424.7688261 158.51953125 431.9375 C135.40283925 440.14950502 111.09494596 443.85178062 86.75 446.0625 C84.78160156 446.24147827 84.78160156 446.24147827 82.7734375 446.42407227 C65.1233902 447.93459302 47.45405201 448.53392459 29.74682617 448.87768555 C26.70026153 448.93725049 23.65385578 449.00247862 20.60742188 449.06835938 C-2.13162318 449.54350292 -24.72128227 449.41615753 -47.4375 448.1875 C-48.65078979 448.12253326 -49.86407959 448.05756653 -51.11413574 447.9906311 C-152.85218675 442.41743766 -152.85218675 442.41743766 -173.625 420.5 C-181.88650294 410.21633002 -188.36878736 398.75784571 -194.5 387.125 C-198.2608551 379.99433603 -202.17009719 373.93493001 -207.61914062 368.01171875 C-220.71790971 353.3978651 -224.54711637 334.00203465 -223.71337891 314.98046875 C-222.28179771 297.50010886 -212.53305102 282.56403501 -200.5 270.375 C-199.92765625 269.74207031 -199.3553125 269.10914063 -198.765625 268.45703125 C-192.63068518 261.84006045 -185.03991248 257.38417837 -176.8125 253.8125 C-169.60873886 250.65384943 -164.38969021 246.22682522 -158.6875 240.875 C-149.05996028 231.99940201 -138.24495448 224.21350156 -127.125 217.3125 C-120.6055595 213.63305483 -120.6055595 213.63305483 -117.03515625 207.41796875 C-116.40730891 198.67404606 -121.50915604 191.848594 -126.0625 184.8125 C-139.32583167 164.28591528 -141.7678957 138.13374559 -137.32202148 114.38696289 C-136.50865446 110.67634121 -135.55568782 107.02349874 -134.5 103.375 C-134.31808105 102.71790039 -134.13616211 102.06080078 -133.94873047 101.38378906 C-128.59180443 82.37843038 -118.29411599 64.32185444 -105.5 49.375 C-104.50419922 48.17810547 -104.50419922 48.17810547 -103.48828125 46.95703125 C-77.64210416 16.90667009 -39.39278248 -0.11275001 0 0 Z " fill="#FDD636" transform="translate(513.5,297.625)"/>
<path d="M0 0 C8.96450705 -0.48002715 15.62973401 2.15756052 23.72265625 5.546875 C30.61349734 8.43113767 37.80488172 10.21247253 45.01416016 12.10888672 C48.33935102 12.98847923 51.65975655 13.88491442 54.98046875 14.78125 C56.05111572 15.05775391 57.1217627 15.33425781 58.22485352 15.61914062 C65.62482864 17.62316797 72.69596164 19.72948933 77.10546875 26.34375 C77.25051128 29.53468571 76.76009721 31.50621064 74.77734375 34.04296875 C68.64333346 39.97695697 60.86303866 43.09667234 53.10546875 46.34375 C52.31462891 46.67552246 51.52378906 47.00729492 50.70898438 47.34912109 C45.63872321 49.45842121 40.53858464 51.47260219 35.40966797 53.43457031 C33.42130019 54.21913077 31.46455012 55.08296688 29.515625 55.9609375 C20.88173793 59.52732726 12.81319738 59.79688036 3.54296875 59.84375 C2.33584229 59.85019531 1.12871582 59.85664063 -0.11499023 59.86328125 C-12.94830591 59.68205173 -24.79560942 56.69358359 -36.89453125 52.59375 C-37.92835938 52.24376953 -38.9621875 51.89378906 -40.02734375 51.53320312 C-53.11300758 46.99913539 -64.91765308 42.30906726 -72.89453125 30.34375 C-73.39453125 27.46875 -73.39453125 27.46875 -72.89453125 24.34375 C-66.95329004 17.9569157 -59.8605824 16.46279945 -51.51953125 15.03125 C-38.18434017 12.72471571 -25.62907728 7.846401 -13.2265625 2.54296875 C-8.84547953 0.96618977 -4.59624084 0.54584237 0 0 Z " fill="#E96837" transform="translate(512.89453125,433.65625)"/>
<path d="M0 0 C8.96450705 -0.48002715 15.62973401 2.15756052 23.72265625 5.546875 C30.61349734 8.43113767 37.80488172 10.21247253 45.01416016 12.10888672 C48.33935102 12.98847923 51.65975655 13.88491442 54.98046875 14.78125 C56.05111572 15.05775391 57.1217627 15.33425781 58.22485352 15.61914062 C64.33592494 17.27411298 70.29532113 19.0399744 75.10546875 23.34375 C76.31591797 25.50170898 76.31591797 25.50170898 77.10546875 27.34375 C41.57278382 31.38401468 41.57278382 31.38401468 24.6171875 22.546875 C8.12550161 14.64728052 -7.95200254 17.18922171 -24.53125 22.91015625 C-26.76834297 23.69835235 -28.99863959 24.50033954 -31.22265625 25.32470703 C-42.06486668 29.33308685 -51.74164419 28.60195992 -63.01953125 26.84375 C-63.97601563 26.70066406 -64.9325 26.55757813 -65.91796875 26.41015625 C-68.24455341 26.06116855 -70.56992281 25.70562667 -72.89453125 25.34375 C-66.92839358 17.20077831 -58.9113856 16.24110855 -49.3449707 14.62182617 C-36.81317158 12.38260188 -24.88818637 7.52958906 -13.2265625 2.54296875 C-8.84547953 0.96618977 -4.59624084 0.54584237 0 0 Z " fill="#EC8A2C" transform="translate(512.89453125,433.65625)"/>
<path d="M0 0 C7.77884371 5.60800361 12.14454882 11.63711603 14.4375 21 C15.27682472 30.86206545 14.13698897 39.01384212 7.6875 46.9375 C2.29503545 51.00936098 -1.94492583 52.43320079 -8.6171875 52.3359375 C-14.38511509 51.48328733 -18.47849102 48.14066711 -22.13671875 43.74609375 C-28.34255934 34.86558095 -29.18809079 26.63300777 -28.3125 15.9375 C-26.72831018 8.68058258 -23.47032693 4.04777364 -17.3125 -0.0625 C-12.35904548 -2.53922726 -5.11107188 -1.63940041 0 0 Z " fill="#352C2C" transform="translate(612.3125,383.0625)"/>
<path d="M0 0 C5.49129 4.053095 8.90314373 8.26235857 10.625 14.9375 C11.76758182 24.70170491 11.96402727 34.91824863 5.625 42.9375 C0.25866854 48.81071287 -4.73753106 51.82713888 -12.75 52.375 C-19.14456609 52.22403217 -23.36217695 48.95032305 -27.75 44.5625 C-32.57781038 36.76372939 -32.69372948 26.19424573 -30.83984375 17.3984375 C-25.82808981 3.21216133 -14.84295946 -4.67278353 0 0 Z " fill="#352C2C" transform="translate(434.375,383.0625)"/>
<path d="M0 0 C2.375 0.875 2.375 0.875 4.375 2.875 C5.05211599 9.8718652 5.05211599 9.8718652 2.6875 13.375 C-0.0883687 15.17556348 -1.38314065 15.53999679 -4.625 14.875 C-6.5 13.3125 -6.5 13.3125 -7.625 10.875 C-7.55445839 6.92467003 -7.15053546 4.62576494 -4.875 1.375 C-2.625 -0.125 -2.625 -0.125 0 0 Z " fill="#F6EEF0" transform="translate(616.625,398.125)"/>
<path d="M0 0 C2.3125 0.9375 2.3125 0.9375 4.3125 2.9375 C4.98961599 9.9343652 4.98961599 9.9343652 2.625 13.4375 C0.3125 14.9375 0.3125 14.9375 -2.25 15.5 C-4.6875 14.9375 -4.6875 14.9375 -6.5 12.75 C-7.78677539 9.70237409 -8.3364278 8.18213901 -7.6875 4.9375 C-3.86236339 -0.0898224 -3.86236339 -0.0898224 0 0 Z " fill="#F7F1F2" transform="translate(433.6875,398.0625)"/>
<path d="M0 0 C2.375 -0.125 2.375 -0.125 5 0 C5.66 0.66 6.32 1.32 7 2 C6.625 4.125 6.625 4.125 6 6 C4.34385343 6.38218767 2.67542976 6.71395102 1 7 C0 6 0 6 -0.0625 2.9375 C-0.041875 1.968125 -0.02125 0.99875 0 0 Z " fill="#F3E2E5" transform="translate(410,415)"/>
<path d="M0 0 C1.67542976 0.28604898 3.34385343 0.61781233 5 1 C5.625 2.875 5.625 2.875 6 5 C5.34 5.66 4.68 6.32 4 7 C1.375 6.625 1.375 6.625 -1 6 C-1.042721 4.33388095 -1.04063832 2.66617115 -1 1 C-0.67 0.67 -0.34 0.34 0 0 Z " fill="#F7EDEE" transform="translate(594,415)"/>
<path d="M0 0 C-0.66 1.32 -1.32 2.64 -2 4 C-2.66 4 -3.32 4 -4 4 C-4 4.66 -4 5.32 -4 6 C-5.32 6 -6.64 6 -8 6 C-6.24081631 1.94034532 -4.71412298 0 0 0 Z " fill="#D74652" transform="translate(502,445)"/>
<path d="M0 0 C3.40320742 1.01176437 4.75725331 1.64843582 6.8125 4.625 C7.204375 5.40875 7.59625 6.1925 8 7 C4.21388773 6.45912682 2.44599233 4.88277668 0 2 C0 1.34 0 0.68 0 0 Z " fill="#D84A50" transform="translate(523,444)"/>
</svg>
